<?xml version="1.0" encoding="UTF-8"?>
<svg xmlns="http://www.w3.org/2000/svg" xmlns:xlink="http://www.w3.org/1999/xlink" width="192pt" height="192pt" viewBox="0 0 192 192" version="1.1">
<g id="surface1">
<path style="fill:none;stroke-width:2;stroke-linecap:round;stroke-linejoin:round;stroke:rgb(0%,0%,0%);stroke-opacity:1;stroke-miterlimit:10;" d="M 17 29 L 7 29 C 4.80013 29 3 27.19987 3 25 L 3 15 C 3 12.80013 4.80013 11 7 11 L 17 11 C 19.19987 11 21 12.80013 21 15 L 21 25 C 21 27.19987 19.19987 29 17 29 Z M 17 29 " transform="matrix(6,0,0,6,0,0)"/>
<path style="fill:none;stroke-width:2;stroke-linecap:round;stroke-linejoin:round;stroke:rgb(0%,0%,0%);stroke-opacity:1;stroke-miterlimit:10;" d="M 13 20 C 13 20.552083 12.552083 21 12 21 C 11.447917 21 11 20.552083 11 20 C 11 19.447917 11.447917 19 12 19 C 12.552083 19 13 19.447917 13 20 Z M 13 20 " transform="matrix(6,0,0,6,0,0)"/>
<path style="fill:none;stroke-width:2;stroke-linecap:round;stroke-linejoin:round;stroke:rgb(0%,0%,0%);stroke-opacity:1;stroke-miterlimit:10;" d="M 9 16 C 9 16.552083 8.552083 17 8 17 C 7.447917 17 7 16.552083 7 16 C 7 15.447917 7.447917 15 8 15 C 8.552083 15 9 15.447917 9 16 Z M 9 16 " transform="matrix(6,0,0,6,0,0)"/>
<path style="fill:none;stroke-width:2;stroke-linecap:round;stroke-linejoin:round;stroke:rgb(0%,0%,0%);stroke-opacity:1;stroke-miterlimit:10;" d="M 17 24 C 17 24.552083 16.552083 25 16 25 C 15.447917 25 15 24.552083 15 24 C 15 23.447917 15.447917 23 16 23 C 16.552083 23 17 23.447917 17 24 Z M 17 24 " transform="matrix(6,0,0,6,0,0)"/>
<path style="fill:none;stroke-width:2;stroke-linecap:round;stroke-linejoin:round;stroke:rgb(0%,0%,0%);stroke-opacity:1;stroke-miterlimit:10;" d="M 9 24 C 9 24.552083 8.552083 25 8 25 C 7.447917 25 7 24.552083 7 24 C 7 23.447917 7.447917 23 8 23 C 8.552083 23 9 23.447917 9 24 Z M 9 24 " transform="matrix(6,0,0,6,0,0)"/>
<path style="fill:none;stroke-width:2;stroke-linecap:round;stroke-linejoin:round;stroke:rgb(0%,0%,0%);stroke-opacity:1;stroke-miterlimit:10;" d="M 11 11 L 11 7 C 11 4.80013 12.80013 3 15 3 L 25 3 C 27.19987 3 29 4.80013 29 7 L 29 17 C 29 19.19987 27.19987 21 25 21 L 21 21 " transform="matrix(6,0,0,6,0,0)"/>
<path style="fill:none;stroke-width:2;stroke-linecap:round;stroke-linejoin:round;stroke:rgb(0%,0%,0%);stroke-opacity:1;stroke-miterlimit:10;" d="M 25 8 C 25 8.552083 24.552083 9 24 9 C 23.447917 9 23 8.552083 23 8 C 23 7.447917 23.447917 7 24 7 C 24.552083 7 25 7.447917 25 8 Z M 25 8 " transform="matrix(6,0,0,6,0,0)"/>
<path style="fill:none;stroke-width:2;stroke-linecap:round;stroke-linejoin:round;stroke:rgb(0%,0%,0%);stroke-opacity:1;stroke-miterlimit:10;" d="M 17 16 C 17 16.552083 16.552083 17 16 17 C 15.447917 17 15 16.552083 15 16 C 15 15.447917 15.447917 15 16 15 C 16.552083 15 17 15.447917 17 16 Z M 17 16 " transform="matrix(6,0,0,6,0,0)"/>
</g>
</svg>
